HIERARCHY
ROOT hip
{
  OFFSET 0 0 0
  CHANNELS 6 Xposition Yposition Zposition Zrotation Yrotation Xrotation
  JOINT abdomen
  {
    OFFSET 0 20.6881 -0.73152
    CHANNELS 3 Zrotation Xrotation Yrotation
    JOINT chest
    {
      OFFSET 0 11.7043 -0.48768
      CHANNELS 3 Zrotation Xrotation Yrotation
      JOINT neck
      {
        OFFSET 0 22.1894 -2.19456
        CHANNELS 3 Zrotation Xrotation Yrotation
        JOINT head
        {
          OFFSET -0.24384 7.07133 1.2192
          CHANNELS 3 Zrotation Xrotation Yrotation
          JOINT leftEye
          {
            OFFSET 4.14528 8.04674 8.04672
            CHANNELS 3 Zrotation Xrotation Yrotation
            End Site
            {
              OFFSET 1 0 0
            }
          }
          JOINT rightEye
          {
            OFFSET -3.6576 8.04674 8.04672
            CHANNELS 3 Zrotation Xrotation Yrotation
            End Site
            {
              OFFSET 1 0 0
            }
          }
        }
      }
      JOINT rCollar
      {
        OFFSET -2.68224 19.2634 -4.8768
        CHANNELS 3 Zrotation Xrotation Yrotation
        JOINT rShldr
        {
          OFFSET -8.77824 -1.95073 1.46304
          CHANNELS 3 Zrotation Xrotation Yrotation
          JOINT rForeArm
          {
            OFFSET -28.1742 -1.7115 0.48768
            CHANNELS 3 Zrotation Xrotation Yrotation
            JOINT rHand
            {
              OFFSET -22.5879 0.773209 7.07136
              CHANNELS 3 Zrotation Xrotation Yrotation
              JOINT rThumb1
              {
                OFFSET -1.2192 -0.487915 3.41376
                CHANNELS 3 Zrotation Xrotation Yrotation
                JOINT rThumb2
                {
                  OFFSET -3.37035 -0.52449 3.41376
                  CHANNELS 3 Zrotation Xrotation Yrotation
                  End Site
                  {
                    OFFSET -1.78271 -1.18214 1.43049
                  }
                }
              }
              JOINT rIndex1
              {
                OFFSET -7.75947 0.938293 5.60832
                CHANNELS 3 Zrotation Xrotation Yrotation
                JOINT rIndex2
                {
                  OFFSET -2.54057 -0.884171 1.56538
                  CHANNELS 3 Zrotation Xrotation Yrotation
                  End Site
                  {
                    OFFSET -1.62519 -0.234802 1.16502
                  }
                }
              }
              JOINT rMid1
              {
                OFFSET -8.24714 1.18213 3.41376
                CHANNELS 3 Zrotation Xrotation Yrotation
                JOINT rMid2
                {
                  OFFSET -3.10165 -0.590103 1.0647
                  CHANNELS 3 Zrotation Xrotation Yrotation
                  End Site
                  {
                    OFFSET -2.48547 -0.328903 0.83742
                  }
                }
              }
              JOINT rRing1
              {
                OFFSET -8.82822 0.546677 1.51678
                CHANNELS 3 Zrotation Xrotation Yrotation
                JOINT rRing2
                {
                  OFFSET -2.60934 -0.819778 -0.0198488
                  CHANNELS 3 Zrotation Xrotation Yrotation
                  End Site
                  {
                    OFFSET -2.33842 -0.294052 0.168128
                  }
                }
              }
              JOINT rPinky1
              {
                OFFSET -8.27202 -0.0477905 -0.4584
                CHANNELS 3 Zrotation Xrotation Yrotation
                JOINT rPinky2
                {
                  OFFSET -1.82734 -0.647385 -0.700984
                  CHANNELS 3 Zrotation Xrotation Yrotation
                  End Site
                  {
                    OFFSET -1.69225 -0.51767 -0.607171
                  }
                }
              }
            }
          }
        }
      }
      JOINT lCollar
      {
        OFFSET 2.68224 19.2634 -4.8768
        CHANNELS 3 Zrotation Xrotation Yrotation
        JOINT lShldr
        {
          OFFSET 8.77824 -1.95073 1.46304
          CHANNELS 3 Zrotation Xrotation Yrotation
          JOINT lForeArm
          {
            OFFSET 28.1742 -1.7115 0.48768
            CHANNELS 3 Zrotation Xrotation Yrotation
            JOINT lHand
            {
              OFFSET 22.5879 0.773209 7.07136
              CHANNELS 3 Zrotation Xrotation Yrotation
              JOINT lThumb1
              {
                OFFSET 1.2192 -0.487915 3.41376
                CHANNELS 3 Zrotation Xrotation Yrotation
                JOINT lThumb2
                {
                  OFFSET 3.37035 -0.52449 3.41376
                  CHANNELS 3 Zrotation Xrotation Yrotation
                  End Site
                  {
                    OFFSET 1.78271 -1.18214 1.43049
                  }
                }
              }
              JOINT lIndex1
              {
                OFFSET 7.75947 0.938293 5.60832
                CHANNELS 3 Zrotation Xrotation Yrotation
                JOINT lIndex2
                {
                  OFFSET 2.54057 -0.884171 1.56538
                  CHANNELS 3 Zrotation Xrotation Yrotation
                  End Site
                  {
                    OFFSET 1.62519 -0.234802 1.16502
                  }
                }
              }
              JOINT lMid1
              {
                OFFSET 8.24714 1.18213 3.41376
                CHANNELS 3 Zrotation Xrotation Yrotation
                JOINT lMid2
                {
                  OFFSET 3.10165 -0.590103 1.0647
                  CHANNELS 3 Zrotation Xrotation Yrotation
                  End Site
                  {
                    OFFSET 2.48547 -0.328903 0.83742
                  }
                }
              }
              JOINT lRing1
              {
                OFFSET 8.82822 0.546677 1.51678
                CHANNELS 3 Zrotation Xrotation Yrotation
                JOINT lRing2
                {
                  OFFSET 2.60934 -0.819778 -0.0198488
                  CHANNELS 3 Zrotation Xrotation Yrotation
                  End Site
                  {
                    OFFSET 2.33842 -0.294052 0.168128
                  }
                }
              }
              JOINT lPinky1
              {
                OFFSET 8.27202 -0.0477905 -0.4584
                CHANNELS 3 Zrotation Xrotation Yrotation
                JOINT lPinky2
                {
                  OFFSET 1.82734 -0.647385 -0.700984
                  CHANNELS 3 Zrotation Xrotation Yrotation
                  End Site
                  {
                    OFFSET 1.69225 -0.51767 -0.607171
                  }
                }
              }
            }
          }
        }
      }
    }
  }
  JOINT rButtock
  {
    OFFSET -8.77824 4.35084 1.2192
    CHANNELS 3 Zrotation Xrotation Yrotation
    JOINT rThigh
    {
      OFFSET 0 -1.70687 -2.19456
      CHANNELS 3 Zrotation Xrotation Yrotation
      JOINT rShin
      {
        OFFSET 0 -36.8199 0.73152
        CHANNELS 3 Zrotation Xrotation Yrotation
        JOINT rFoot
        {
          OFFSET 0.73152 -45.1104 -5.12064
          CHANNELS 3 Zrotation Xrotation Yrotation
          End Site
          {
            OFFSET -1.1221 -3.69964 12.103
          }
        }
      }
    }
  }
  JOINT lButtock
  {
    OFFSET 8.77824 4.35084 1.2192
    CHANNELS 3 Zrotation Xrotation Yrotation
    JOINT lThigh
    {
      OFFSET 0 -1.70687 -2.19456
      CHANNELS 3 Zrotation Xrotation Yrotation
      JOINT lShin
      {
        OFFSET 0 -36.8199 0.73152
        CHANNELS 3 Zrotation Xrotation Yrotation
        JOINT lFoot
        {
          OFFSET -0.73152 -45.1104 -5.12064
          CHANNELS 3 Zrotation Xrotation Yrotation
          End Site
          {
            OFFSET 1.1221 -3.69964 12.103
          }
        }
      }
    }
  }
}
MOTION
Frames:	8
Frame Time:	0.00833333
-77.0128 63.2921 5.42342 151.73 56.2229 -181.408 -18.154 31.2927 24.8868 -9.36176 -4.73262 5.69331 11.1355 1.16918 18.9826 -36.2807 -6.95053 35.7605 -0.0 0.0 0.0 -0.0 0.0 0.0 -5.0783e-14 -7.63341e-14 -1.30303e-13 82.5678 51.4414 -19.8435 -25.1645 -21.4534 53.538 -0.223409 -13.3415 -1.91002 -1.39501e-09 3.09064e-10 1.7738e-09 -2.42884e-09 5.41133e-10 3.05043e-09 -1.395e-09 3.09066e-10 1.77379e-09 7.73091 5.47488 0.417314 -1.39501e-09 3.09062e-10 1.7738e-09 2.90554 0.965183 0.102902 -1.395e-09 3.09061e-10 1.7738e-09 10.2786 0.731801 0.0259123 -1.39501e-09 3.09063e-10 1.7738e-09 2.22167 -0.733487 -0.20892 -5.09981e-14 -7.63339e-14 -1.30502e-13 -41.7872 -31.3028 -0.316195 13.2546 -6.36842 -24.0662 0.738135 23.6372 -3.52646 1.70298e-09 4.89809e-10 -2.86567e-09 2.88657e-09 7.81055e-10 -4.98796e-09 1.70298e-09 4.89811e-10 -2.86566e-09 -7.73091 5.47488 -0.417314 1.70298e-09 4.89811e-10 -2.86567e-09 -2.90554 0.965183 -0.102902 1.70298e-09 4.89811e-10 -2.86568e-09 -10.2786 0.731801 -0.0259123 1.70299e-09 4.89815e-10 -2.86569e-09 -2.22167 -0.733487 0.20892 -2.03217e-16 0.0 -3.88251e-19 -68.769 -35.7812 -55.3378 -4.49465 80.8498 6.54535 -4.27364 -23.8361 -10.0864 2.03217e-16 0.0 3.88251e-19 -18.558 -79.5893 -13.7838 2.59861 73.6232 -3.31072 -1.04602 -11.9634 -1.67752
-76.9189 63.3339 5.35885 151.818 56.2893 -181.528 -18.0308 31.426 24.5247 -8.99191 -4.69449 5.61206 10.1371 -0.951604 17.5272 -34.0448 -6.50062 32.9177 -0.0 0.0 0.0 -0.0 0.0 0.0 -4.62749e-14 -1.33336e-13 -1.82824e-13 81.7106 51.6399 -19.3092 -25.1796 -21.4866 53.5952 -0.23614 -13.7081 -1.96454 -1.63263e-09 4.34533e-10 1.82481e-09 -2.83938e-09 7.59834e-10 3.1379e-09 -1.63263e-09 4.34535e-10 1.8248e-09 7.73091 5.47488 0.417314 -1.63263e-09 4.34531e-10 1.82481e-09 2.90554 0.965183 0.102902 -1.63263e-09 4.3453e-10 1.82481e-09 10.2786 0.731801 0.0259123 -1.63264e-09 4.34532e-10 1.82481e-09 2.22167 -0.733487 -0.20892 -4.64861e-14 -1.33335e-13 -1.83027e-13 -42.094 -31.1639 -0.000325263 13.3232 -6.42162 -24.2018 0.729661 23.5112 -3.50533 1.50025e-09 -5.99811e-10 -4.45647e-09 2.50634e-09 -1.1278e-09 -7.73297e-09 1.50025e-09 -5.99809e-10 -4.45646e-09 -7.73091 5.47488 -0.417314 1.50026e-09 -5.99809e-10 -4.45646e-09 -2.90554 0.965183 -0.102902 1.50025e-09 -5.99809e-10 -4.45647e-09 -10.2786 0.731801 -0.0259123 1.50026e-09 -5.99805e-10 -4.45648e-09 -2.22167 -0.733487 0.20892 -2.03217e-16 0.0 -3.88251e-19 -68.4135 -35.6559 -54.9553 -4.40898 80.7022 6.45709 -4.28748 -23.8412 -10.1089 2.03217e-16 0.0 3.88251e-19 -18.3755 -79.3099 -13.6681 2.59607 73.6081 -3.30986 -1.01646 -12.0545 -1.58916
-76.861 63.36 5.28414 151.787 56.3133 -181.691 -17.8767 31.5186 24.0812 -8.53504 -4.63141 5.51615 8.58265 -3.79029 15.6658 -30.9777 -5.78203 29.2936 -0.0 0.0 0.0 -0.0 0.0 0.0 -7.157e-14 -2.3735e-13 -2.5273e-13 80.697 51.8182 -18.6764 -25.1998 -21.531 53.6727 -0.255811 -14.2369 -2.04365 -1.25609e-09 6.63942e-10 1.9137e-09 -2.18951e-09 1.15856e-09 3.29795e-09 -1.25608e-09 6.63942e-10 1.91369e-09 7.73091 5.47488 0.417314 -1.25609e-09 6.6394e-10 1.9137e-09 2.90554 0.965183 0.102902 -1.25608e-09 6.6394e-10 1.9137e-09 10.2786 0.731801 0.0259123 -1.2561e-09 6.63942e-10 1.91371e-09 2.22167 -0.733487 -0.20892 -7.17584e-14 -2.37349e-13 -2.5295e-13 -42.4928 -31.0 0.340395 13.4123 -6.49047 -24.3782 0.719027 23.3508 -3.47851 8.59901e-10 -2.21605e-09 -6.06612e-09 1.3702e-09 -3.94287e-09 -1.05013e-08 8.59901e-10 -2.21605e-09 -6.06611e-09 -7.73091 5.47488 -0.417314 8.59904e-10 -2.21605e-09 -6.06611e-09 -2.90554 0.965183 -0.102902 8.59892e-10 -2.21605e-09 -6.06612e-09 -10.2786 0.731801 -0.0259123 8.59906e-10 -2.21605e-09 -6.06612e-09 -2.22167 -0.733487 0.20892 -2.03217e-16 0.0 -3.88251e-19 -68.0864 -35.5298 -54.6137 -4.33294 80.5666 6.37823 -4.28865 -23.8501 -10.1051 2.03217e-16 0.0 3.88251e-19 -18.4981 -79.0456 -13.8888 2.59398 73.5894 -3.31115 -0.980452 -12.1479 -1.48105
-76.8196 63.4052 5.20241 151.814 56.2868 -181.774 -17.7079 31.6045 23.6145 -8.07048 -4.57651 5.41459 6.52532 -6.67887 13.4688 -27.2631 -5.10579 25.1444 -0.0 0.0 0.0 -0.0 0.0 0.0 -9.48321e-14 -3.21286e-13 -2.95601e-13 79.7259 51.9097 -17.9819 -25.205 -21.5424 53.6924 -0.271036 -14.6291 -2.10259 -6.86631e-10 8.07682e-10 1.79613e-09 -1.20451e-09 1.40822e-09 3.10308e-09 -6.86626e-10 8.07681e-10 1.79612e-09 7.73091 5.47488 0.417314 -6.86632e-10 8.07681e-10 1.79613e-09 2.90554 0.965183 0.102902 -6.86626e-10 8.07681e-10 1.79613e-09 10.2786 0.731801 0.0259123 -6.86637e-10 8.07683e-10 1.79613e-09 2.22167 -0.733487 -0.20892 -9.49887e-14 -3.21286e-13 -2.9584e-13 -42.8966 -30.8422 0.697099 13.4982 -6.55693 -24.5492 0.706717 23.1634 -3.44727 7.32157e-11 -3.76581e-09 -7.20371e-09 -9.65211e-12 -6.63332e-09 -1.24508e-08 7.32141e-11 -3.76581e-09 -7.2037e-09 -7.73091 5.47488 -0.417314 7.32165e-11 -3.76581e-09 -7.2037e-09 -2.90554 0.965183 -0.102902 7.32043e-11 -3.76581e-09 -7.20371e-09 -10.2786 0.731801 -0.0259123 7.3218e-11 -3.76581e-09 -7.20371e-09 -2.22167 -0.733487 0.20892 -2.03217e-16 0.0 -3.88251e-19 -67.7409 -35.4157 -54.2704 -4.25179 80.4172 6.29371 -4.29125 -23.8626 -10.1028 2.03217e-16 0.0 3.88251e-19 -18.5955 -78.7816 -14.1019 2.59067 73.5632 -3.31128 -0.946605 -12.2392 -1.38019
-76.7524 63.5131 5.15936 152.166 56.3274 -181.676 -17.5394 31.7185 23.1823 -7.67782 -4.56296 5.31633 4.1246 -8.91235 10.9733 -23.197 -4.85423 20.7075 -0.0 0.0 0.0 -0.0 0.0 0.0 -8.42244e-14 -3.18056e-13 -2.67018e-13 79.0025 51.8487 -17.2675 -25.175 -21.4768 53.5764 -0.268233 -14.5854 -2.09577 -3.45502e-10 6.76145e-10 1.22776e-09 -6.09643e-10 1.17975e-09 2.12578e-09 -3.45497e-10 6.76143e-10 1.22775e-09 7.73091 5.47488 0.417314 -3.45503e-10 6.76144e-10 1.22776e-09 2.90554 0.965183 0.102902 -3.45497e-10 6.76144e-10 1.22775e-09 10.2786 0.731801 0.0259123 -3.45508e-10 6.76147e-10 1.22776e-09 2.22167 -0.733487 -0.20892 -8.43505e-14 -3.18055e-13 -2.67266e-13 -43.2171 -30.722 1.06144 13.5579 -6.6032 -24.6688 0.693191 22.9564 -3.41282 -5.68516e-10 -4.65595e-09 -7.37835e-09 -1.12099e-09 -8.16833e-09 -1.27392e-08 -5.68519e-10 -4.65596e-09 -7.37835e-09 -7.73091 5.47488 -0.417314 -5.68517e-10 -4.65596e-09 -7.37835e-09 -2.90554 0.965183 -0.102902 -5.68529e-10 -4.65596e-09 -7.37835e-09 -10.2786 0.731801 -0.0259123 -5.68515e-10 -4.65595e-09 -7.37835e-09 -2.22167 -0.733487 0.20892 -2.03217e-16 0.0 -3.88251e-19 -67.3304 -35.3254 -53.8826 -4.15267 80.2285 6.19038 -4.30938 -23.8781 -10.1299 2.03217e-16 0.0 3.88251e-19 -18.3684 -78.5039 -13.9943 2.58451 73.5255 -3.30698 -0.923723 -12.3245 -1.31363
-76.6907 63.5892 5.16278 152.587 56.448 -181.428 -17.3751 31.8959 22.7936 -7.38778 -4.61511 5.22021 1.34851 -10.3403 7.96015 -18.8078 -5.20613 15.7128 -0.0 0.0 0.0 -0.0 0.0 0.0 -2.50139e-14 -1.77415e-13 -1.03672e-13 78.6695 51.5287 -16.4896 -25.0801 -21.2703 53.2181 -0.235019 -13.7841 -1.97499 -3.79232e-10 -2.584e-11 -3.13395e-10 -6.52979e-10 -3.93182e-11 -5.37723e-10 -3.79229e-10 -2.58416e-11 -3.13398e-10 7.73091 5.47488 0.417314 -3.79234e-10 -2.58408e-11 -3.13394e-10 2.90554 0.965183 0.102902 -3.79228e-10 -2.58401e-11 -3.13398e-10 10.2786 0.731801 0.0259123 -3.79238e-10 -2.58377e-11 -3.13388e-10 2.22167 -0.733487 -0.20892 -2.51039e-14 -1.77416e-13 -1.03917e-13 -43.4074 -30.6422 1.43217 13.5823 -6.62216 -24.7177 0.676454 22.6985 -3.37003 -1.10672e-09 -4.76303e-09 -6.16619e-09 -2.02705e-09 -8.32632e-09 -1.0633e-08 -1.10672e-09 -4.76304e-09 -6.16619e-09 -7.73091 5.47488 -0.417314 -1.10672e-09 -4.76304e-09 -6.16618e-09 -2.90554 0.965183 -0.102902 -1.10673e-09 -4.76304e-09 -6.16619e-09 -10.2786 0.731801 -0.0259123 -1.10672e-09 -4.76303e-09 -6.16619e-09 -2.22167 -0.733487 0.20892 -2.03217e-16 0.0 -3.88251e-19 -66.7943 -35.245 -53.3971 -4.03055 79.9857 6.06343 -4.35688 -23.9072 -10.2101 2.03217e-16 0.0 3.88251e-19 -17.697 -78.1848 -13.4463 2.57338 73.4644 -3.29438 -0.927961 -12.3928 -1.32824
-76.6099 63.6751 5.12639 152.803 56.5396 -181.464 -17.206 32.1099 22.4195 -7.15512 -4.71014 5.1226 -1.81553 -11.2804 4.46306 -14.1277 -5.97266 10.1283 -0.0 0.0 0.0 -0.0 0.0 0.0 6.37387e-14 5.40717e-14 1.53592e-13 78.6094 51.0112 -15.6621 -24.9338 -20.9569 52.6906 -0.188434 -12.4649 -1.77893 -5.51759e-10 -1.11561e-09 -2.54474e-09 -9.29485e-10 -1.93191e-09 -4.39617e-09 -5.51756e-10 -1.11561e-09 -2.54474e-09 7.73091 5.47488 0.417314 -5.5176e-10 -1.11561e-09 -2.54474e-09 2.90554 0.965183 0.102902 -5.51754e-10 -1.11561e-09 -2.54474e-09 10.2786 0.731801 0.0259123 -5.51762e-10 -1.11561e-09 -2.54473e-09 2.22167 -0.733487 -0.20892 6.36927e-14 5.40674e-14 1.53356e-13 -43.5213 -30.5877 1.8139 13.5849 -6.62424 -24.7229 0.65727 22.397 -3.32022 -1.65704e-09 -4.3918e-09 -3.92668e-09 -2.93441e-09 -7.6393e-09 -6.75111e-09 -1.65705e-09 -4.39181e-09 -3.92668e-09 -7.73091 5.47488 -0.417314 -1.65704e-09 -4.39181e-09 -3.92667e-09 -2.90554 0.965183 -0.102902 -1.65705e-09 -4.39181e-09 -3.92668e-09 -10.2786 0.731801 -0.0259123 -1.65704e-09 -4.3918e-09 -3.92668e-09 -2.22167 -0.733487 0.20892 -2.03217e-16 0.0 -3.88251e-19 -66.1738 -35.1716 -52.85 -3.89676 79.7053 5.92428 -4.423 -23.9466 -10.3232 2.03217e-16 0.0 3.88251e-19 -16.7919 -77.8382 -12.6741 2.55885 73.3858 -3.27636 -0.950357 -12.4497 -1.39644
-76.5195 63.7841 5.04415 152.872 56.6384 -181.724 -17.0276 32.3034 22.0607 -6.94541 -4.81045 5.02881 -5.03634 -11.7146 0.906674 -9.52566 -7.01838 4.53957 -0.0 0.0 0.0 -0.0 0.0 0.0 1.63179e-13 2.98279e-13 3.92962e-13 78.6254 50.4863 -14.9024 -24.7854 -20.6443 52.1839 -0.152003 -11.1721 -1.58976 -7.10437e-10 -2.06603e-09 -4.50376e-09 -1.1848e-09 -3.58279e-09 -7.78452e-09 -7.10436e-10 -2.06603e-09 -4.50376e-09 7.73091 5.47488 0.417314 -7.10439e-10 -2.06603e-09 -4.50375e-09 2.90554 0.965183 0.102902 -7.10433e-10 -2.06603e-09 -4.50376e-09 10.2786 0.731801 0.0259123 -7.10438e-10 -2.06603e-09 -4.50375e-09 2.22167 -0.733487 -0.20892 1.63168e-13 2.98274e-13 3.92742e-13 -43.6213 -30.5633 2.20747 13.577 -6.61812 -24.707 0.63989 22.1166 -3.27416 -2.03955e-09 -3.59149e-09 -1.3439e-09 -3.54586e-09 -6.20682e-09 -2.27952e-09 -2.03955e-09 -3.59149e-09 -1.3439e-09 -7.73091 5.47488 -0.417314 -2.03955e-09 -3.59149e-09 -1.3439e-09 -2.90554 0.965183 -0.102902 -2.03956e-09 -3.59149e-09 -1.3439e-09 -10.2786 0.731801 -0.0259123 -2.03955e-09 -3.59149e-09 -1.34391e-09 -2.22167 -0.733487 0.20892 -2.03217e-16 0.0 -3.88251e-19 -65.5739 -35.135 -52.3313 -3.76306 79.4077 5.78413 -4.48484 -23.9748 -10.4307 2.03217e-16 0.0 3.88251e-19 -15.8492 -77.5125 -11.8673 2.54469 73.3118 -3.25964 -0.961906 -12.5153 -1.43359
